<svg xmlns="http://www.w3.org/2000/svg" width="272" height="512" viewBox="0 0 272 512">
  <g id="swap-vert" data-name="Swap Vert" transform="translate(-120)">
    <rect data-name="Swap Vert" width="272" height="512" transform="translate(120)" fill="none"/>
    <path data-name="Swap Vert" d="M225.261,297.661V169.448a21.333,21.333,0,1,0-42.667,0V297.661H144.408a10.559,10.559,0,0,0-7.467,18.133l59.52,59.307a10.953,10.953,0,0,0,15.147,0l59.52-59.307c6.827-6.613,1.92-18.133-7.467-18.133ZM68.461,6.247,8.941,65.767A10.559,10.559,0,0,0,16.408,83.9H54.595V212.114a21.333,21.333,0,1,0,42.667,0V83.9h38.187a10.559,10.559,0,0,0,7.467-18.133L83.395,6.247a10.69,10.69,0,0,0-14.933,0Z" transform="translate(116.292 65.793)"/>
  </g>
</svg>
